<svg width="1110" height="1110" viewBox="0 0 1110 1110" fill="none" xmlns="http://www.w3.org/2000/svg">
<g opacity="0.5">
<path fill-rule="evenodd" clip-rule="evenodd" d="M403.143 469.217C355.834 552.605 385.082 658.556 468.47 705.864C551.858 753.173 657.808 723.925 705.117 640.538C752.426 557.15 723.178 451.199 639.79 403.89C556.402 356.581 450.452 385.829 403.143 469.217ZM400.153 467.521C351.907 552.56 381.734 660.609 466.773 708.854C551.813 757.1 659.861 727.273 708.107 642.234C756.353 557.195 726.526 449.146 641.486 400.9C556.447 352.655 448.399 382.482 400.153 467.521Z" fill="url(#paint0_linear_2504_48)"/>
<path fill-rule="evenodd" clip-rule="evenodd" d="M288.781 404.336C205.639 550.884 257.04 737.084 403.588 820.226C550.136 903.368 736.337 851.967 819.478 705.419C902.62 558.871 851.219 372.67 704.671 289.529C558.123 206.387 371.923 257.788 288.781 404.336ZM287.286 403.488C203.676 550.861 255.366 738.111 402.74 821.721C550.114 905.331 737.363 853.641 820.973 706.267C904.584 558.893 852.893 371.644 705.519 288.034C558.146 204.423 370.896 256.114 287.286 403.488Z" fill="url(#paint1_linear_2504_48)"/>
<path fill-rule="evenodd" clip-rule="evenodd" d="M202.288 354.771C91.8614 549.411 160.13 796.717 354.771 907.143C549.411 1017.57 796.717 949.301 907.143 754.66C1017.57 560.02 949.301 312.714 754.66 202.288C560.02 91.8612 312.714 160.13 202.288 354.771ZM200.793 353.923C89.8981 549.389 158.457 797.743 353.923 908.638C549.389 1019.53 797.744 950.974 908.638 755.508C1019.53 560.042 950.975 311.687 755.508 200.793C560.042 89.8979 311.688 158.457 200.793 353.923Z" fill="url(#paint2_linear_2504_48)"/>
</g>
<defs>
<linearGradient id="paint0_linear_2504_48" x1="708.107" y1="642.234" x2="525.664" y2="538.727" gradientUnits="userSpaceOnUse">
<stop stop-color="#1DCF00"/>
<stop offset="1" stop-color="#80FF00" stop-opacity="0"/>
</linearGradient>
<linearGradient id="paint1_linear_2504_48" x1="820.973" y1="706.267" x2="504.797" y2="526.889" gradientUnits="userSpaceOnUse">
<stop stop-color="#1DCF00"/>
<stop offset="1" stop-color="#80FF00" stop-opacity="0"/>
</linearGradient>
<linearGradient id="paint2_linear_2504_48" x1="956.5" y1="668.5" x2="489.285" y2="517.594" gradientUnits="userSpaceOnUse">
<stop stop-color="#70FF00"/>
<stop offset="0.453823" stop-color="#33FF00" stop-opacity="0"/>
</linearGradient>
</defs>
</svg>
