<svg width="439" height="591" viewBox="0 0 439 591" fill="none" xmlns="http://www.w3.org/2000/svg">
<path d="M128.75 459.75C114.417 459.75 100.167 458.5 86 456C72 453.5 58.9167 449.25 46.75 443.25C34.5833 437.25 24.3333 429 16 418.5L60.5 372.25C64.3333 376.75 69 381.167 74.5 385.5C80.1667 389.833 87.0833 393.417 95.25 396.25C103.583 399.083 113.667 400.5 125.5 400.5C136.5 400.5 146.083 398.583 154.25 394.75C162.417 390.917 168.75 385.333 173.25 378C177.917 370.667 180.25 361.75 180.25 351.25V346.25H255V355.75C255 378.417 249.333 397.5 238 413C226.833 428.5 211.75 440.167 192.75 448C173.75 455.833 152.417 459.75 128.75 459.75ZM180.25 350V316.75C178.75 320.083 174.917 324.917 168.75 331.25C162.75 337.583 154.75 343.333 144.75 348.5C134.75 353.5 123.083 356 109.75 356C89.75 356 72.25 351.167 57.25 341.5C42.25 331.667 30.5833 318.583 22.25 302.25C13.9167 285.75 9.75 267.5 9.75 247.5C9.75 227.5 13.9167 209.333 22.25 193C30.5833 176.5 42.25 163.333 57.25 153.5C72.25 143.667 89.75 138.75 109.75 138.75C122.583 138.75 133.833 140.833 143.5 145C153.167 149 161 153.833 167 159.5C173 165 177.167 170.083 179.5 174.75V144.75H255V350H180.25ZM84.25 247.5C84.25 256.833 86.4167 265.25 90.75 272.75C95.0833 280.083 100.833 285.833 108 290C115.333 294.167 123.417 296.25 132.25 296.25C141.417 296.25 149.5 294.167 156.5 290C163.5 285.833 169 280.083 173 272.75C177.167 265.25 179.25 256.833 179.25 247.5C179.25 238.167 177.167 229.833 173 222.5C169 215 163.5 209.167 156.5 205C149.5 200.667 141.417 198.5 132.25 198.5C123.417 198.5 115.333 200.667 108 205C100.833 209.167 95.0833 215 90.75 222.5C86.4167 229.833 84.25 238.167 84.25 247.5Z" fill="white"/>
<mask id="path-2-outside-1_44_493" maskUnits="userSpaceOnUse" x="177" y="124" width="260" height="336" fill="black">
<rect fill="white" x="177" y="124" width="260" height="336"/>
<path d="M310.25 131.25C324.583 131.25 338.833 132.5 353 135C367 137.5 380.083 141.75 392.25 147.75C404.417 153.75 414.667 162 423 172.5L378.5 218.75C374.667 214.25 370 209.833 364.5 205.5C358.833 201.167 351.917 197.583 343.75 194.75C335.417 191.917 325.333 190.5 313.5 190.5C302.5 190.5 292.917 192.417 284.75 196.25C276.583 200.083 270.25 205.667 265.75 213C261.083 220.333 258.75 229.25 258.75 239.75V244.75L184 244.75V235.25C184 212.583 189.667 193.5 201 178C212.167 162.5 227.25 150.833 246.25 143C265.25 135.167 286.583 131.25 310.25 131.25ZM258.75 241V274.25C260.25 270.917 264.083 266.083 270.25 259.75C276.25 253.417 284.25 247.667 294.25 242.5C304.25 237.5 315.917 235 329.25 235C349.25 235 366.75 239.833 381.75 249.5C396.75 259.333 408.417 272.417 416.75 288.75C425.083 305.25 429.25 323.5 429.25 343.5C429.25 363.5 425.083 381.667 416.75 398C408.417 414.5 396.75 427.667 381.75 437.5C366.75 447.333 349.25 452.25 329.25 452.25C316.417 452.25 305.167 450.167 295.5 446C285.833 442 278 437.167 272 431.5C266 426 261.833 420.917 259.5 416.25V446.25H184L184 241L258.75 241ZM354.75 343.5C354.75 334.167 352.583 325.75 348.25 318.25C343.917 310.917 338.167 305.167 331 301C323.667 296.833 315.583 294.75 306.75 294.75C297.583 294.75 289.5 296.833 282.5 301C275.5 305.167 270 310.917 266 318.25C261.833 325.75 259.75 334.167 259.75 343.5C259.75 352.833 261.833 361.167 266 368.5C270 376 275.5 381.833 282.5 386C289.5 390.333 297.583 392.5 306.75 392.5C315.583 392.5 323.667 390.333 331 386C338.167 381.833 343.917 376 348.25 368.5C352.583 361.167 354.75 352.833 354.75 343.5Z"/>
</mask>
<path d="M353 135L354.231 128.109L354.223 128.108L354.216 128.106L353 135ZM392.25 147.75L395.346 141.472H395.346L392.25 147.75ZM423 172.5L428.044 177.353L432.288 172.943L428.483 168.148L423 172.5ZM378.5 218.75L373.171 223.289L378.184 229.174L383.544 223.603L378.5 218.75ZM364.5 205.5L368.832 200.001L368.792 199.97L368.752 199.939L364.5 205.5ZM343.75 194.75L346.044 188.137L346.024 188.129L346.003 188.122L343.75 194.75ZM284.75 196.25L281.776 189.913L284.75 196.25ZM265.75 213L271.656 216.758L271.686 216.71L271.716 216.661L265.75 213ZM258.75 244.75V251.75H265.75V244.75H258.75ZM184 244.75H177V251.75H184V244.75ZM201 178L206.651 182.132L206.665 182.112L206.68 182.092L201 178ZM258.75 241H265.75V234H258.75V241ZM258.75 274.25L251.75 274.25L265.133 277.122L258.75 274.25ZM270.25 259.75L275.265 264.633L275.299 264.599L275.332 264.564L270.25 259.75ZM294.25 242.5L291.119 236.239L291.078 236.26L291.037 236.281L294.25 242.5ZM381.75 249.5L385.588 243.646L385.565 243.631L385.542 243.616L381.75 249.5ZM416.75 288.75L422.998 285.594L422.992 285.581L422.985 285.569L416.75 288.75ZM416.75 398L410.515 394.819L410.508 394.831L410.502 394.844L416.75 398ZM381.75 437.5L377.912 431.646H377.912L381.75 437.5ZM295.5 446L298.271 439.572L298.224 439.551L298.176 439.532L295.5 446ZM272 431.5L276.806 426.411L276.768 426.375L276.73 426.34L272 431.5ZM259.5 416.25L265.761 413.119L252.5 416.25H259.5ZM259.5 446.25V453.25H266.5V446.25H259.5ZM184 446.25H177V453.25H184V446.25ZM184 241V234H177V241H184ZM348.25 318.25L354.311 314.748L354.294 314.718L354.276 314.689L348.25 318.25ZM331 301L334.518 294.948L334.488 294.931L334.458 294.914L331 301ZM282.5 301L286.08 307.015L282.5 301ZM266 318.25L272.119 321.649L272.132 321.626L272.145 321.602L266 318.25ZM266 368.5L272.176 365.206L272.132 365.123L272.086 365.042L266 368.5ZM282.5 386L286.184 380.048L286.133 380.016L286.08 379.985L282.5 386ZM331 386L327.482 379.948L327.46 379.961L327.439 379.973L331 386ZM348.25 368.5L342.223 364.939L342.206 364.968L342.189 364.998L348.25 368.5ZM310.25 138.25C324.174 138.25 338.017 139.464 351.783 141.893L354.216 128.106C339.65 125.536 324.993 124.25 310.25 124.25V138.25ZM351.769 141.891C365.153 144.281 377.605 148.333 389.154 154.028L395.346 141.472C382.561 135.167 368.847 130.719 354.231 128.109L351.769 141.891ZM389.154 154.028C400.404 159.576 409.835 167.172 417.517 176.851L428.483 168.148C419.498 156.828 408.429 147.924 395.346 141.472L389.154 154.028ZM417.956 167.647L373.456 213.897L383.544 223.603L428.044 177.353L417.956 167.647ZM383.829 214.211C379.647 209.301 374.631 204.57 368.832 200.001L360.168 210.998C365.369 215.096 369.687 219.198 373.171 223.289L383.829 214.211ZM368.752 199.939C362.383 195.069 354.771 191.164 346.044 188.137L341.456 201.363C349.062 204.002 355.284 207.264 360.248 211.06L368.752 199.939ZM346.003 188.122C336.743 184.974 325.853 183.5 313.5 183.5L313.5 197.5C324.813 197.5 334.09 198.859 341.497 201.377L346.003 188.122ZM313.5 183.5C301.693 183.5 291.054 185.558 281.776 189.913L287.724 202.587C294.779 199.275 303.307 197.5 313.5 197.5L313.5 183.5ZM281.776 189.913C272.435 194.298 265.034 200.782 259.784 209.339L271.716 216.661C275.466 210.551 280.731 205.869 287.724 202.587L281.776 189.913ZM259.844 209.242C254.327 217.913 251.75 228.198 251.75 239.75L265.75 239.75C265.75 230.302 267.84 222.754 271.656 216.758L259.844 209.242ZM251.75 239.75V244.75L265.75 244.75V239.75L251.75 239.75ZM258.75 237.75L184 237.75V251.75L258.75 251.75V237.75ZM191 244.75V235.25H177V244.75H191ZM191 235.25C191 213.792 196.344 196.227 206.651 182.132L195.349 173.868C182.989 190.773 177 211.374 177 235.25H191ZM206.68 182.092C217.026 167.73 231.029 156.847 248.918 149.471L243.582 136.528C223.471 144.82 207.307 157.269 195.32 173.908L206.68 182.092ZM248.918 149.471C266.953 142.036 287.361 138.25 310.25 138.25V124.25C285.805 124.25 263.547 128.297 243.582 136.528L248.918 149.471ZM251.75 241L251.75 274.25L265.75 274.25L265.75 241L251.75 241ZM265.133 277.122C266.073 275.034 269.086 270.98 275.265 264.633L265.235 254.867C259.081 261.187 254.427 266.799 252.367 271.377L265.133 277.122ZM275.332 264.564C280.661 258.939 287.968 253.624 297.463 248.719L291.037 236.281C280.531 241.709 271.839 247.895 265.168 254.936L275.332 264.564ZM297.38 248.761C306.238 244.332 316.796 242 329.25 242V228C315.037 228 302.261 230.668 291.119 236.239L297.38 248.761ZM329.25 242C348.073 242 364.222 246.532 377.958 255.384L385.542 243.616C369.278 233.135 350.427 228 329.25 228V242ZM377.912 255.354C391.871 264.505 402.722 276.657 410.515 291.931L422.985 285.569C414.112 268.176 401.629 254.162 385.588 243.646L377.912 255.354ZM410.502 291.906C418.301 307.348 422.25 324.504 422.25 343.5H436.25C436.25 322.495 431.866 303.151 422.998 285.594L410.502 291.906ZM422.25 343.5C422.25 362.496 418.301 379.558 410.515 394.819L422.985 401.181C431.866 383.776 436.25 364.504 436.25 343.5H422.25ZM410.502 394.844C402.704 410.284 391.854 422.506 377.912 431.646L385.588 443.354C401.646 432.827 414.13 418.716 422.998 401.156L410.502 394.844ZM377.912 431.646C364.181 440.647 348.049 445.25 329.25 445.25V459.25C350.451 459.25 369.319 454.019 385.588 443.354L377.912 431.646ZM329.25 445.25C317.166 445.25 306.893 443.288 298.271 439.572L292.729 452.428C303.44 457.045 315.667 459.25 329.25 459.25V445.25ZM298.176 439.532C289.096 435.774 282.045 431.359 276.806 426.411L267.194 436.589C273.955 442.975 282.571 448.226 292.823 452.468L298.176 439.532ZM276.73 426.34C271.047 421.13 267.56 416.717 265.761 413.119L253.239 419.38C256.107 425.117 260.953 430.87 267.27 436.66L276.73 426.34ZM252.5 416.25L252.5 446.25H266.5L266.5 416.25H252.5ZM259.5 439.25H184L184 453.25H259.5L259.5 439.25ZM191 446.25L191 241H177L177 446.25H191ZM184 248L258.75 248V234L184 234V248ZM361.75 343.5C361.75 333.036 359.307 323.395 354.311 314.748L342.189 321.752C345.86 328.105 347.75 335.298 347.75 343.5L361.75 343.5ZM354.276 314.689C349.351 306.354 342.75 299.734 334.518 294.948L327.482 307.051C333.584 310.599 338.482 315.479 342.223 321.811L354.276 314.689ZM334.458 294.914C326.02 290.119 316.736 287.75 306.75 287.75V301.75C314.431 301.75 321.313 303.547 327.542 307.086L334.458 294.914ZM306.75 287.75C296.484 287.75 287.133 290.096 278.92 294.985L286.08 307.015C291.866 303.571 298.682 301.75 306.75 301.75V287.75ZM278.92 294.985C270.813 299.81 264.439 306.492 259.855 314.898L272.145 321.602C275.56 315.341 280.187 310.523 286.08 307.015L278.92 294.985ZM259.881 314.85C255.086 323.48 252.75 333.084 252.75 343.5H266.75C266.75 335.249 268.58 328.02 272.119 321.649L259.881 314.85ZM252.75 343.5C252.75 353.913 255.086 363.461 259.914 371.958L272.086 365.042C268.581 358.872 266.75 351.753 266.75 343.5H252.75ZM259.823 371.794C264.397 380.37 270.773 387.166 278.92 392.015L286.08 379.985C280.227 376.5 275.603 371.63 272.176 365.206L259.823 371.794ZM278.815 391.952C287.045 397.046 296.434 399.5 306.75 399.5V385.5C298.733 385.5 291.955 383.62 286.184 380.048L278.815 391.952ZM306.75 399.5C316.788 399.5 326.108 397.021 334.561 392.026L327.439 379.973C321.225 383.645 314.379 385.5 306.75 385.5V399.5ZM334.518 392.052C342.789 387.243 349.395 380.51 354.311 372.002L342.189 364.998C338.438 371.49 333.545 376.423 327.482 379.948L334.518 392.052ZM354.276 372.061C359.307 363.548 361.75 353.962 361.75 343.5L347.75 343.5C347.75 351.704 345.859 358.786 342.223 364.939L354.276 372.061Z" fill="white" mask="url(#path-2-outside-1_44_493)"/>
</svg>
