<svg width="1673" height="554" viewBox="0 0 1673 554" fill="none" xmlns="http://www.w3.org/2000/svg">
<path d="M128.75 459.75C114.417 459.75 100.167 458.5 86 456C72 453.5 58.9167 449.25 46.75 443.25C34.5833 437.25 24.3333 429 16 418.5L60.5 372.25C64.3333 376.75 69 381.167 74.5 385.5C80.1667 389.833 87.0833 393.417 95.25 396.25C103.583 399.083 113.667 400.5 125.5 400.5C136.5 400.5 146.083 398.583 154.25 394.75C162.417 390.917 168.75 385.333 173.25 378C177.917 370.667 180.25 361.75 180.25 351.25V346.25H255V355.75C255 378.417 249.333 397.5 238 413C226.833 428.5 211.75 440.167 192.75 448C173.75 455.833 152.417 459.75 128.75 459.75ZM180.25 350V316.75C178.75 320.083 174.917 324.917 168.75 331.25C162.75 337.583 154.75 343.333 144.75 348.5C134.75 353.5 123.083 356 109.75 356C89.75 356 72.25 351.167 57.25 341.5C42.25 331.667 30.5833 318.583 22.25 302.25C13.9167 285.75 9.75 267.5 9.75 247.5C9.75 227.5 13.9167 209.333 22.25 193C30.5833 176.5 42.25 163.333 57.25 153.5C72.25 143.667 89.75 138.75 109.75 138.75C122.583 138.75 133.833 140.833 143.5 145C153.167 149 161 153.833 167 159.5C173 165 177.167 170.083 179.5 174.75V144.75H255V350H180.25ZM84.25 247.5C84.25 256.833 86.4167 265.25 90.75 272.75C95.0833 280.083 100.833 285.833 108 290C115.333 294.167 123.417 296.25 132.25 296.25C141.417 296.25 149.5 294.167 156.5 290C163.5 285.833 169 280.083 173 272.75C177.167 265.25 179.25 256.833 179.25 247.5C179.25 238.167 177.167 229.833 173 222.5C169 215 163.5 209.167 156.5 205C149.5 200.667 141.417 198.5 132.25 198.5C123.417 198.5 115.333 200.667 108 205C100.833 209.167 95.0833 215 90.75 222.5C86.4167 229.833 84.25 238.167 84.25 247.5ZM360.715 239.75C360.715 256.083 363.798 269.167 369.965 279C376.132 288.667 386.465 293.5 400.965 293.5C415.798 293.5 426.215 288.667 432.215 279C438.382 269.167 441.465 256.083 441.465 239.75V144.75H516.465V247.75C516.465 269.75 511.882 288.917 502.715 305.25C493.715 321.417 480.632 333.917 463.465 342.75C446.298 351.583 425.465 356 400.965 356C376.632 356 355.882 351.583 338.715 342.75C321.548 333.917 308.465 321.417 299.465 305.25C290.465 288.917 285.965 269.75 285.965 247.75V144.75H360.715V239.75ZM638.176 138.75C651.676 138.75 664.009 139.917 675.176 142.25C686.342 144.417 695.676 146.917 703.176 149.75C710.842 152.583 715.759 154.917 717.926 156.75L693.176 201.5C690.009 199.167 684.092 196.167 675.426 192.5C666.926 188.833 657.426 187 646.926 187C638.926 187 632.176 188.25 626.676 190.75C621.176 193.083 618.426 196.833 618.426 202C618.426 207.167 621.426 211.333 627.426 214.5C633.592 217.5 642.426 220.167 653.926 222.5C663.926 224.5 674.092 227.667 684.426 232C694.759 236.333 703.342 242.75 710.176 251.25C717.176 259.583 720.676 270.75 720.676 284.75C720.676 299.083 717.592 310.917 711.426 320.25C705.259 329.583 697.092 336.833 686.926 342C676.759 347.167 665.759 350.75 653.926 352.75C642.092 354.917 630.592 356 619.426 356C603.759 356 590.092 354.583 578.426 351.75C566.926 348.917 557.592 345.667 550.426 342C543.259 338.333 538.259 335.417 535.426 333.25L559.926 283.25C564.259 286.917 571.342 291.083 581.176 295.75C591.009 300.25 601.426 302.5 612.426 302.5C623.092 302.5 631.342 300.917 637.176 297.75C643.009 294.583 645.926 290.417 645.926 285.25C645.926 281.083 644.509 277.75 641.676 275.25C638.842 272.75 634.842 270.583 629.676 268.75C624.509 266.917 618.259 265.25 610.926 263.75C604.259 262.417 597.176 260.333 589.676 257.5C582.176 254.667 575.092 250.833 568.426 246C561.759 241 556.342 234.75 552.176 227.25C548.009 219.75 545.926 210.667 545.926 200C545.926 186.333 550.342 175 559.176 166C568.009 157 579.426 150.25 593.426 145.75C607.426 141.083 622.342 138.75 638.176 138.75ZM725.102 144.75H760.102V60.5H835.352V144.75H881.352V207.25H835.352V264.5C835.352 273 836.602 279.917 839.102 285.25C841.602 290.417 846.185 293 852.852 293C857.352 293 861.185 292 864.352 290C867.518 288 869.435 286.667 870.102 286L896.102 340C894.935 341 891.268 342.833 885.102 345.5C879.102 348.167 871.435 350.583 862.102 352.75C852.768 354.917 842.352 356 830.852 356C810.352 356 793.435 350.25 780.102 338.75C766.768 327.083 760.102 309.167 760.102 285V207.25H725.102V144.75ZM1068.49 350V316.75C1066.99 320.083 1063.16 324.917 1056.99 331.25C1050.99 337.583 1042.99 343.333 1032.99 348.5C1022.99 353.5 1011.33 356 997.992 356C977.992 356 960.492 351.167 945.492 341.5C930.492 331.667 918.826 318.583 910.492 302.25C902.159 285.75 897.992 267.5 897.992 247.5C897.992 227.5 902.159 209.333 910.492 193C918.826 176.5 930.492 163.333 945.492 153.5C960.492 143.667 977.992 138.75 997.992 138.75C1010.83 138.75 1022.08 140.833 1031.74 145C1041.41 149 1049.24 153.833 1055.24 159.5C1061.24 165 1065.41 170.083 1067.74 174.75V144.75H1143.24V350H1068.49ZM972.492 247.5C972.492 256.833 974.659 265.25 978.992 272.75C983.326 280.083 989.076 285.833 996.242 290C1003.58 294.167 1011.66 296.25 1020.49 296.25C1029.66 296.25 1037.74 294.167 1044.74 290C1051.74 285.833 1057.24 280.083 1061.24 272.75C1065.41 265.25 1067.49 256.833 1067.49 247.5C1067.49 238.167 1065.41 229.833 1061.24 222.5C1057.24 215 1051.74 209.167 1044.74 205C1037.74 200.667 1029.66 198.5 1020.49 198.5C1011.66 198.5 1003.58 200.667 996.242 205C989.076 209.167 983.326 215 978.992 222.5C974.659 229.833 972.492 238.167 972.492 247.5ZM1157.97 144.75H1239.22L1288.72 281L1338.47 144.75H1419.22L1333.22 350H1244.22L1157.97 144.75ZM1539.41 356C1516.91 356 1496.91 351.417 1479.41 342.25C1462.07 332.917 1448.41 320.167 1438.41 304C1428.57 287.667 1423.66 269 1423.66 248C1423.66 227 1428.57 208.333 1438.41 192C1448.41 175.5 1462.07 162.5 1479.41 153C1496.91 143.5 1516.91 138.75 1539.41 138.75C1561.91 138.75 1581.74 143.5 1598.91 153C1616.07 162.5 1629.49 175.5 1639.16 192C1648.82 208.333 1653.66 227 1653.66 248C1653.66 269 1648.82 287.667 1639.16 304C1629.49 320.167 1616.07 332.917 1598.91 342.25C1581.74 351.417 1561.91 356 1539.41 356ZM1539.41 293.5C1548.07 293.5 1555.57 291.583 1561.91 287.75C1568.24 283.917 1573.16 278.5 1576.66 271.5C1580.16 264.5 1581.91 256.583 1581.91 247.75C1581.91 238.75 1580.16 230.75 1576.66 223.75C1573.16 216.75 1568.24 211.25 1561.91 207.25C1555.57 203.25 1548.07 201.25 1539.41 201.25C1530.74 201.25 1523.16 203.25 1516.66 207.25C1510.32 211.25 1505.32 216.75 1501.66 223.75C1498.16 230.75 1496.41 238.75 1496.41 247.75C1496.41 256.583 1498.16 264.5 1501.66 271.5C1505.32 278.5 1510.32 283.917 1516.66 287.75C1523.16 291.583 1530.74 293.5 1539.41 293.5Z" fill="url(#paint0_linear_44_554)"/>
<path d="M593.522 478.057V498.775C593.522 501.528 593.252 503.739 592.711 505.411C592.17 507.033 591.163 508.507 589.688 509.834C588.263 511.162 586.419 512.44 584.158 513.668C577.621 517.208 571.329 519.788 565.283 521.41C559.237 523.032 552.651 523.843 545.523 523.843C537.216 523.843 529.647 522.565 522.814 520.009C515.982 517.453 510.157 513.742 505.34 508.876C500.523 504.01 496.812 498.111 494.207 491.181C491.651 484.25 490.373 476.508 490.373 467.956C490.373 459.55 491.626 451.858 494.133 444.878C496.64 437.898 500.327 431.975 505.193 427.109C510.059 422.243 515.982 418.532 522.962 415.976C529.942 413.37 537.855 412.068 546.703 412.068C553.978 412.068 560.417 413.051 566.021 415.017C571.624 416.934 576.171 419.367 579.661 422.316C583.151 425.266 585.78 428.387 587.55 431.68C589.319 434.973 590.204 437.898 590.204 440.454C590.204 443.207 589.172 445.566 587.107 447.532C585.092 449.449 582.659 450.408 579.808 450.408C578.235 450.408 576.711 450.039 575.237 449.302C573.811 448.564 572.607 447.532 571.624 446.205C568.921 441.978 566.635 438.783 564.767 436.62C562.899 434.457 560.368 432.639 557.173 431.164C554.027 429.689 549.996 428.952 545.081 428.952C540.018 428.952 535.496 429.837 531.515 431.606C527.533 433.327 524.117 435.858 521.266 439.201C518.464 442.494 516.302 446.549 514.778 451.366C513.303 456.183 512.566 461.516 512.566 467.366C512.566 480.047 515.466 489.804 521.266 496.637C527.115 503.469 535.25 506.885 545.671 506.885C550.734 506.885 555.477 506.222 559.901 504.895C564.374 503.567 568.896 501.675 573.467 499.217V481.669H556.509C552.43 481.669 549.333 481.055 547.219 479.826C545.155 478.597 544.123 476.508 544.123 473.559C544.123 471.151 544.983 469.16 546.703 467.587C548.473 466.014 550.857 465.228 553.855 465.228H578.702C581.75 465.228 584.33 465.498 586.444 466.039C588.557 466.579 590.253 467.784 591.531 469.651C592.858 471.519 593.522 474.321 593.522 478.057ZM728.384 412.068C739.591 412.068 749.2 414.354 757.212 418.925C765.274 423.447 771.369 429.911 775.498 438.316C779.627 446.672 781.691 456.503 781.691 467.808C781.691 476.164 780.56 483.758 778.299 490.591C776.038 497.423 772.647 503.346 768.125 508.36C763.602 513.374 758.048 517.208 751.461 519.862C744.875 522.516 737.33 523.843 728.826 523.843C720.372 523.843 712.802 522.492 706.117 519.788C699.432 517.035 693.853 513.177 689.38 508.212C684.907 503.248 681.516 497.276 679.206 490.296C676.945 483.316 675.814 475.771 675.814 467.661C675.814 459.354 676.994 451.735 679.353 444.804C681.762 437.874 685.227 431.975 689.749 427.109C694.271 422.243 699.776 418.532 706.265 415.976C712.753 413.37 720.126 412.068 728.384 412.068ZM759.498 467.661C759.498 459.747 758.22 452.89 755.664 447.09C753.108 441.29 749.446 436.915 744.678 433.966C739.96 430.967 734.528 429.468 728.384 429.468C724.009 429.468 719.954 430.304 716.218 431.975C712.532 433.597 709.337 435.981 706.633 439.127C703.979 442.273 701.865 446.303 700.293 451.219C698.769 456.085 698.007 461.566 698.007 467.661C698.007 473.805 698.769 479.359 700.293 484.324C701.865 489.288 704.053 493.417 706.855 496.71C709.705 499.955 712.95 502.388 716.587 504.01C720.273 505.632 724.304 506.443 728.679 506.443C734.282 506.443 739.419 505.042 744.088 502.24C748.807 499.438 752.543 495.113 755.295 489.264C758.097 483.414 759.498 476.213 759.498 467.661ZM895.392 425.192L937.492 488.895V424.602C937.492 420.424 938.377 417.303 940.147 415.238C941.965 413.125 944.398 412.068 947.446 412.068C950.592 412.068 953.074 413.125 954.893 415.238C956.711 417.303 957.621 420.424 957.621 424.602V509.613C957.621 519.1 953.688 523.843 945.824 523.843C943.858 523.843 942.088 523.548 940.515 522.958C938.942 522.418 937.468 521.533 936.091 520.304C934.715 519.075 933.437 517.65 932.257 516.028C931.078 514.357 929.898 512.661 928.718 510.94L887.651 447.975V511.309C887.651 515.438 886.692 518.559 884.775 520.673C882.858 522.786 880.4 523.843 877.402 523.843C874.305 523.843 871.823 522.786 869.955 520.673C868.087 518.51 867.153 515.389 867.153 511.309V427.92C867.153 424.381 867.547 421.604 868.333 419.588C869.267 417.376 870.815 415.582 872.978 414.206C875.141 412.781 877.476 412.068 879.983 412.068C881.949 412.068 883.62 412.387 884.996 413.026C886.422 413.665 887.651 414.526 888.683 415.607C889.764 416.688 890.845 418.089 891.927 419.81C893.057 421.53 894.213 423.324 895.392 425.192ZM1045.15 496.784L1100.67 430.353H1052.96C1049.62 430.353 1047.09 429.616 1045.37 428.141C1043.7 426.667 1042.86 424.725 1042.86 422.316C1042.86 419.81 1043.7 417.794 1045.37 416.271C1047.09 414.698 1049.62 413.911 1052.96 413.911H1114.45C1122.42 413.911 1126.4 417.622 1126.4 425.044C1126.4 428.583 1125.74 431.41 1124.41 433.523C1123.08 435.637 1120.4 439.053 1116.37 443.772L1064.47 505.558H1121.68C1125.07 505.558 1127.6 506.271 1129.27 507.696C1130.95 509.073 1131.78 511.014 1131.78 513.521C1131.78 516.126 1130.95 518.191 1129.27 519.714C1127.6 521.238 1125.07 522 1121.68 522H1051.49C1046.72 522 1043.13 520.943 1040.72 518.83C1038.32 516.667 1037.11 513.791 1037.11 510.203C1037.11 508.974 1037.31 507.844 1037.7 506.812C1038.09 505.779 1038.61 504.821 1039.25 503.936C1039.94 503.002 1040.87 501.847 1042.05 500.471C1043.23 499.045 1044.26 497.816 1045.15 496.784ZM1281.24 509.761L1276.08 496.194H1232.14L1226.98 510.056C1224.96 515.463 1223.24 519.125 1221.81 521.042C1220.39 522.909 1218.05 523.843 1214.81 523.843C1212.06 523.843 1209.62 522.836 1207.51 520.82C1205.4 518.805 1204.34 516.519 1204.34 513.963C1204.34 512.489 1204.59 510.965 1205.08 509.392C1205.57 507.819 1206.38 505.632 1207.51 502.83L1235.16 432.639C1235.95 430.623 1236.88 428.215 1237.96 425.413C1239.09 422.562 1240.27 420.203 1241.5 418.335C1242.78 416.467 1244.43 414.968 1246.44 413.837C1248.51 412.658 1251.04 412.068 1254.03 412.068C1257.08 412.068 1259.61 412.658 1261.63 413.837C1263.69 414.968 1265.34 416.443 1266.57 418.261C1267.85 420.08 1268.9 422.046 1269.74 424.16C1270.62 426.224 1271.73 429.001 1273.06 432.491L1301.3 502.24C1303.51 507.549 1304.61 511.407 1304.61 513.816C1304.61 516.323 1303.56 518.633 1301.44 520.747C1299.38 522.811 1296.87 523.843 1293.92 523.843C1292.2 523.843 1290.73 523.524 1289.5 522.885C1288.27 522.295 1287.24 521.484 1286.4 520.452C1285.57 519.37 1284.66 517.748 1283.67 515.585C1282.74 513.374 1281.93 511.432 1281.24 509.761ZM1237.89 479.752H1270.18L1253.89 435.146L1237.89 479.752ZM1482.09 478.057V498.775C1482.09 501.528 1481.82 503.739 1481.28 505.411C1480.74 507.033 1479.73 508.507 1478.26 509.834C1476.83 511.162 1474.99 512.44 1472.73 513.668C1466.19 517.208 1459.9 519.788 1453.85 521.41C1447.81 523.032 1441.22 523.843 1434.09 523.843C1425.79 523.843 1418.22 522.565 1411.38 520.009C1404.55 517.453 1398.73 513.742 1393.91 508.876C1389.09 504.01 1385.38 498.111 1382.78 491.181C1380.22 484.25 1378.94 476.508 1378.94 467.956C1378.94 459.55 1380.2 451.858 1382.7 444.878C1385.21 437.898 1388.9 431.975 1393.76 427.109C1398.63 422.243 1404.55 418.532 1411.53 415.976C1418.51 413.37 1426.43 412.068 1435.27 412.068C1442.55 412.068 1448.99 413.051 1454.59 415.017C1460.19 416.934 1464.74 419.367 1468.23 422.316C1471.72 425.266 1474.35 428.387 1476.12 431.68C1477.89 434.973 1478.77 437.898 1478.77 440.454C1478.77 443.207 1477.74 445.566 1475.68 447.532C1473.66 449.449 1471.23 450.408 1468.38 450.408C1466.81 450.408 1465.28 450.039 1463.81 449.302C1462.38 448.564 1461.18 447.532 1460.19 446.205C1457.49 441.978 1455.21 438.783 1453.34 436.62C1451.47 434.457 1448.94 432.639 1445.74 431.164C1442.6 429.689 1438.57 428.952 1433.65 428.952C1428.59 428.952 1424.07 429.837 1420.08 431.606C1416.1 433.327 1412.69 435.858 1409.84 439.201C1407.03 442.494 1404.87 446.549 1403.35 451.366C1401.87 456.183 1401.14 461.516 1401.14 467.366C1401.14 480.047 1404.04 489.804 1409.84 496.637C1415.69 503.469 1423.82 506.885 1434.24 506.885C1439.3 506.885 1444.05 506.222 1448.47 504.895C1452.94 503.567 1457.47 501.675 1462.04 499.217V481.669H1445.08C1441 481.669 1437.9 481.055 1435.79 479.826C1433.72 478.597 1432.69 476.508 1432.69 473.559C1432.69 471.151 1433.55 469.16 1435.27 467.587C1437.04 466.014 1439.43 465.228 1442.43 465.228H1467.27C1470.32 465.228 1472.9 465.498 1475.01 466.039C1477.13 466.579 1478.82 467.784 1480.1 469.651C1481.43 471.519 1482.09 474.321 1482.09 478.057ZM1632.81 509.761L1627.64 496.194H1583.7L1578.54 510.056C1576.53 515.463 1574.8 519.125 1573.38 521.042C1571.95 522.909 1569.62 523.843 1566.37 523.843C1563.62 523.843 1561.19 522.836 1559.08 520.82C1556.96 518.805 1555.91 516.519 1555.91 513.963C1555.91 512.489 1556.15 510.965 1556.64 509.392C1557.13 507.819 1557.95 505.632 1559.08 502.83L1586.72 432.639C1587.51 430.623 1588.44 428.215 1589.53 425.413C1590.66 422.562 1591.84 420.203 1593.07 418.335C1594.34 416.467 1595.99 414.968 1598.01 413.837C1600.07 412.658 1602.6 412.068 1605.6 412.068C1608.65 412.068 1611.18 412.658 1613.19 413.837C1615.26 414.968 1616.9 416.443 1618.13 418.261C1619.41 420.08 1620.47 422.046 1621.3 424.16C1622.19 426.224 1623.29 429.001 1624.62 432.491L1652.86 502.24C1655.07 507.549 1656.18 511.407 1656.18 513.816C1656.18 516.323 1655.12 518.633 1653.01 520.747C1650.94 522.811 1648.44 523.843 1645.49 523.843C1643.77 523.843 1642.29 523.524 1641.06 522.885C1639.84 522.295 1638.8 521.484 1637.97 520.452C1637.13 519.37 1636.22 517.748 1635.24 515.585C1634.31 513.374 1633.49 511.432 1632.81 509.761ZM1589.45 479.752H1621.75L1605.45 435.146L1589.45 479.752Z" fill="url(#paint1_linear_44_554)"/>
<defs>
<linearGradient id="paint0_linear_44_554" x1="0" y1="230" x2="1673" y2="230" gradientUnits="userSpaceOnUse">
<stop stop-color="#7033FF"/>
<stop offset="1" stop-color="#5345F9"/>
</linearGradient>
<linearGradient id="paint1_linear_44_554" x1="483" y1="466.5" x2="1661" y2="466.5" gradientUnits="userSpaceOnUse">
<stop stop-color="white"/>
<stop offset="1" stop-color="#363636"/>
</linearGradient>
</defs>
</svg>
