<svg width="200" height="67" viewBox="0 0 200 67" fill="none" xmlns="http://www.w3.org/2000/svg">
<path opacity="0.1" d="M48.8285 38.9481L41.8333 38.9448L26.2635 38.9369C26.0485 38.9369 25.8423 39.0199 25.6878 39.1677L13.5086 50.8304L9.38987 54.7756C8.84885 55.2942 9.21512 56.2083 9.96449 56.2083L32.5306 56.2194C32.7457 56.2194 32.9518 56.1366 33.1064 55.9887L49.4043 40.3819C49.9453 39.8633 49.579 38.9493 48.8296 38.9493L48.8285 38.9481Z" fill="#D6D6D6"/>
<path d="M46.2533 30.3075L39.2581 30.3041L27.0789 41.9669C26.9244 42.1147 26.7171 42.1977 26.5032 42.1977L10.9334 42.1898L6.81467 46.1349C6.27364 46.6535 6.63997 47.5675 7.38933 47.5675L29.9555 47.5788C30.1705 47.5788 30.3766 47.4958 30.5312 47.348L46.8291 31.7412C47.3701 31.2226 47.0038 30.3085 46.2544 30.3085L46.2533 30.3075Z" fill="url(#paint0_linear_24_480)"/>
<path d="M27.0792 41.9669L39.2583 30.3041L23.6885 30.2963C23.4735 30.2963 23.2673 30.3791 23.1128 30.527L10.9336 42.1898L26.5034 42.1977C26.7185 42.1977 26.9246 42.1147 27.0792 41.9669Z" fill="url(#paint1_linear_24_480)"/>
<path opacity="0.11" d="M27.0792 41.9669L39.2583 30.3041L23.6885 30.2963C23.4735 30.2963 23.2673 30.3791 23.1128 30.527L10.9336 42.1898L26.5034 42.1977C26.7185 42.1977 26.9246 42.1147 27.0792 41.9669Z" fill="#101903"/>
<path d="M145.366 8.3114C144.958 8.25427 144.541 8.22961 144.13 8.22848C136.265 8.20944 128.399 8.18821 120.532 8.16581C116.405 8.1546 112.259 8.17811 108.155 8.22739C104.467 8.27108 100.778 9.30503 97.9583 11.692C93.815 15.2003 91.7651 20.8322 92.3543 26.1965C93.1955 33.8649 98.9082 38.9301 105.908 41.0573C109.977 42.2939 113.995 43.6561 118.121 44.7123C121.096 45.474 122.817 46.7106 123.284 48.4199C123.458 49.0562 123.442 49.736 123.213 50.3543C122.454 52.3885 119.702 53.4997 114.956 53.6879H109.365C112.727 53.7596 114.447 56.5051 114.447 59.8856C114.447 63.3098 112.657 66.0832 109.232 66.0832H98.6237L115.279 66.0866C122.434 66.0866 130.373 63.9314 134.462 57.5881C138.45 51.4028 137.851 41.8212 132.359 36.6406C129.711 34.145 125.03 32.0559 118.314 30.3769C109.145 28.0952 106.465 26.3567 106.252 23.87C106.188 23.1308 106.562 20.6698 110.953 20.6272H145.377C147.208 20.6272 148.693 19.1419 148.693 17.3105V11.5452C148.693 9.40466 147.126 8.55671 145.366 8.3114Z" fill="white"/>
<path d="M118.077 59.8856C118.077 56.505 116.358 53.7596 112.995 53.6879H99.4481C97.6099 53.6879 96.1224 55.1832 96.1314 57.0213L96.1616 62.7832C96.1706 64.6079 97.6525 66.082 99.4772 66.082H102.253H112.862C116.286 66.082 118.076 63.3086 118.076 59.8843L118.077 59.8856Z" fill="#EDEBEB"/>
<path d="M114.937 59.8856C114.937 56.505 113.218 53.7596 109.855 53.6879H96.3084C94.4703 53.6879 92.9828 55.1832 92.9917 57.0213L93.022 62.7832C93.0309 64.6079 94.5129 66.082 96.3376 66.082H99.1132H109.722C113.146 66.082 114.936 63.3086 114.936 59.8843L114.937 59.8856Z" fill="#D6D6D6"/>
<path d="M191.541 16.6877C185.901 11.049 179.078 8.22847 171.072 8.22847C166.253 8.22847 161.872 9.24335 157.926 11.2697C157.064 11.7121 156.223 12.2016 155.403 12.7404C155.114 12.9308 154.827 13.1257 154.544 13.3284C153.901 13.8045 153.219 14.4072 152.578 15.161C152.349 15.431 151.922 15.1487 152.092 14.8384C152.142 14.7466 152.194 14.6558 152.247 14.564C153.768 11.9317 154.541 8.93198 154.541 5.89195V0H142.143V37.1581C142.143 45.1648 144.962 51.9887 150.602 57.6274C156.241 63.2672 163.065 66.0865 171.072 66.0865C179.078 66.0865 185.901 63.2672 191.541 57.6274C197.18 51.9887 200 45.1648 200 37.1581C200 29.1514 197.18 22.3287 191.541 16.6888V16.6877ZM183.153 48.4389C179.718 52.0771 175.499 53.8245 170.501 53.68C166.516 53.5646 162.685 51.9752 159.786 49.2376C156.149 45.8033 154.403 41.5871 154.547 36.5891C154.663 32.6048 156.251 28.7751 158.986 25.8762C162.574 22.0756 167.014 20.3394 172.308 20.6642C175.831 20.8815 179.209 22.2816 181.853 24.6182C185.83 28.1343 187.744 32.5039 187.592 37.7248C187.477 41.7091 185.889 45.5389 183.152 48.4378L183.153 48.4389Z" fill="white"/>
<path d="M154.541 13.3295C154.541 13.3295 154.543 13.3285 154.543 13.3273C154.543 13.3273 154.543 13.3273 154.544 13.3273L154.541 13.3295Z" fill="white"/>
<path d="M61.3828 48.104V8.23076H75.1626V45.7607C75.1626 51.3412 78.1254 53.6845 81.0187 53.6845H105.916C109.34 53.6845 112.117 56.4613 112.117 59.8856C112.117 63.3098 109.34 66.0865 105.916 66.0865H80.4676C71.7171 65.9488 61.3828 62.3655 61.3828 48.104Z" fill="url(#paint2_linear_24_480)"/>
<path d="M42.0616 22.9874L35.1302 22.984L24.6178 33.0506C24.4632 33.1985 24.256 33.2813 24.042 33.2813L8.40727 33.2736L2.62181 38.8148C2.08079 39.3334 2.44705 40.2475 3.19642 40.2475L25.7625 40.2586C25.9776 40.2586 26.1837 40.1758 26.3383 40.0279L42.6362 24.4212C43.1772 23.9025 42.8109 22.9885 42.0616 22.9885V22.9874Z" fill="url(#paint3_linear_24_480)"/>
<path d="M24.6192 33.0506L35.1317 22.984L19.4969 22.9761C19.2818 22.9761 19.0757 23.0591 18.9211 23.2069L8.40869 33.2736L24.0435 33.2813C24.2585 33.2813 24.4647 33.1985 24.6192 33.0506Z" fill="url(#paint4_linear_24_480)"/>
<path opacity="0.11" d="M24.6192 33.0506L35.1317 22.984L19.4969 22.9761C19.2818 22.9761 19.0757 23.0591 18.9211 23.2069L8.40869 33.2736L24.0435 33.2813C24.2585 33.2813 24.4647 33.1985 24.6192 33.0506Z" fill="#101903"/>
<path d="M17.1322 13.9614L39.6983 13.9725C40.4477 13.9725 40.8151 14.8866 40.2729 15.4052L23.975 31.0119C23.8205 31.1598 23.6132 31.2428 23.3993 31.2428L0.83315 31.2315C0.083783 31.2315 -0.283606 30.3175 0.258536 29.7988L16.5564 14.1921C16.711 14.0442 16.9182 13.9614 17.1322 13.9614Z" fill="url(#paint5_linear_24_480)"/>
<defs>
<linearGradient id="paint0_linear_24_480" x1="6.55593" y1="38.9414" x2="47.0867" y2="38.9414" gradientUnits="userSpaceOnUse">
<stop stop-color="#98FF13"/>
<stop offset="0.92" stop-color="#3BFF00"/>
</linearGradient>
<linearGradient id="paint1_linear_24_480" x1="6.55613" y1="36.2475" x2="47.0869" y2="36.2475" gradientUnits="userSpaceOnUse">
<stop stop-color="#98FF13"/>
<stop offset="0.92" stop-color="#3BFF00"/>
</linearGradient>
<linearGradient id="paint2_linear_24_480" x1="61.3828" y1="37.1581" x2="112.117" y2="37.1581" gradientUnits="userSpaceOnUse">
<stop stop-color="#98FF13"/>
<stop offset="0.92" stop-color="#3BFF00"/>
</linearGradient>
<linearGradient id="paint3_linear_24_480" x1="2.36417" y1="31.6213" x2="42.8949" y2="31.6213" gradientUnits="userSpaceOnUse">
<stop stop-color="#98FF13"/>
<stop offset="0.92" stop-color="#3BFF00"/>
</linearGradient>
<linearGradient id="paint4_linear_24_480" x1="2.36447" y1="28.1287" x2="42.8953" y2="28.1287" gradientUnits="userSpaceOnUse">
<stop stop-color="#98FF13"/>
<stop offset="0.92" stop-color="#3BFF00"/>
</linearGradient>
<linearGradient id="paint5_linear_24_480" x1="-0.000216882" y1="22.6032" x2="40.5317" y2="22.6032" gradientUnits="userSpaceOnUse">
<stop stop-color="#98FF13"/>
<stop offset="0.92" stop-color="#3BFF00"/>
</linearGradient>
</defs>
</svg>
