<svg width="337" height="707" viewBox="0 0 337 707" fill="none" xmlns="http://www.w3.org/2000/svg">
<path d="M85.03 43.0801C56.29 71.8201 41.92 106.6 41.92 147.4C41.92 171.96 47.09 194.29 57.42 214.4C59.67 218.79 62.17 223.08 64.92 227.26C65.63 228.35 66.38 229.42 67.13 230.49C66.38 229.42 65.64 228.35 64.92 227.26C65.78 228.65 66.77 230.13 67.9 231.65H67.93C67.93 231.65 67.93 231.65 67.93 231.64C70.36 234.91 73.43 238.39 77.27 241.66C78.65 242.83 77.21 245 75.63 244.14C75.16 243.88 74.7 243.62 74.23 243.35C60.81 235.6 45.53 231.66 30.03 231.66H0V294.85H41.91H41.88L41.9 299.51C41.81 334.66 41.72 369.82 41.62 404.98C41.56 426.01 41.68 447.15 41.93 468.06C42.15 486.85 47.42 505.66 59.59 520.03C77.47 541.15 106.17 551.59 133.51 548.59C172.59 544.3 198.4 515.19 209.25 479.51C215.55 458.77 222.49 438.29 227.88 417.27C231.76 402.11 238.06 393.33 246.78 390.95C250.02 390.06 253.49 390.14 256.64 391.32C267.01 395.19 272.67 409.21 273.63 433.4V478.84C273.63 479.05 273.61 479.26 273.61 479.48V606.36C273.61 621.11 261.67 636.21 233.23 636.21H41.96V706.44H245.17C317.86 706.44 336.12 653.77 336.82 609.17V479.48C336.82 479.33 336.82 479.18 336.81 479.02C336.81 456.32 336.81 431.76 336.81 431.76C336.81 395.29 325.83 354.83 293.5 333.99C261.97 313.66 213.14 316.72 186.74 344.71C174.02 358.2 163.37 382.06 154.82 416.29C143.19 463.02 134.33 476.68 121.66 477.77C117.89 478.09 105.35 476.19 105.13 453.81V294.86H189.38C230.19 294.86 264.96 280.49 293.7 251.75C322.44 223.01 336.81 188.23 336.81 147.43C336.81 106.63 322.44 71.8499 293.7 43.1099C264.96 14.3699 230.18 0 189.38 0C148.58 0 113.8 14.3699 85.06 43.1099L85.03 43.0801ZM192.25 63.2002C212.55 63.7902 232.08 71.8801 246.85 85.8301C265.39 103.34 274.3 124.83 273.56 150.31C272.97 170.62 264.87 190.15 250.92 204.92C233.41 223.45 211.93 232.35 186.46 231.62C166.16 231.03 146.63 222.94 131.86 209C112.49 190.72 103.64 168.09 105.3 141.11C106.4 123.16 113.54 105.94 125.45 92.46C143.37 72.19 165.64 62.44 192.25 63.21V63.2002Z" fill="#111111"/>
</svg>
