<?xml version="1.0" encoding="utf-8"?><svg xmlns="http://www.w3.org/2000/svg" xmlns:xlink="http://www.w3.org/1999/xlink" width="2560" height="1279" preserveAspectRatio="xMidYMid" viewBox="0 0 2560 1279" style="z-index:1;margin-right:-2px;display:block;animation-play-state:paused" ><g transform="translate(1280,639.5) scale(1,1) translate(-1280,-639.5)" style="transform:matrix(1, 0, 0, 1, 0, 0);animation-play-state:paused" ><linearGradient id="lg-0.9321748387810265" x1="0" x2="1" y1="0" y2="0" style="animation-play-state:paused" ><stop stop-color="#0f0f0f" offset="0" style="animation-play-state:paused" ></stop>

  
<stop stop-color="#0f0f0f" offset="1" style="animation-play-state:paused" ></stop></linearGradient>
<path d="M 0 0 L 0 1268.55 Q 256 1060.02 512 1034.21 T 1024 965.615 T 1536 876.192 T 2048 756.163 T 2560 498.455 L 2560 0 Z" fill="url(#lg-0.9321748387810265)" opacity="0.4" style="opacity:0.4;animation-play-state:paused" ></path>
<path d="M 0 0 L 0 1184.6 Q 256 1069.69 512 1023.92 T 1024 931.68 T 1536 778.208 T 2048 627.401 T 2560 624.979 L 2560 0 Z" fill="url(#lg-0.9321748387810265)" opacity="0.4" style="opacity:0.4;animation-play-state:paused" ></path>
<path d="M 0 0 L 0 1113.97 Q 256 972.497 512 958.156 T 1024 924.1 T 1536 750.63 T 2048 778.081 T 2560 628.454 L 2560 0 Z" fill="url(#lg-0.9321748387810265)" opacity="0.4" style="opacity:0.4;animation-play-state:paused" ></path>
<path d="M 0 0 L 0 1146.74 Q 256 1071.52 512 1026.13 T 1024 947.393 T 1536 934.813 T 2048 785.598 T 2560 502.431 L 2560 0 Z" fill="url(#lg-0.9321748387810265)" opacity="0.4" style="opacity:0.4;animation-play-state:paused" ></path>
<path d="M 0 0 L 0 1259.89 Q 256 1123.15 512 1088.46 T 1024 950.669 T 1536 794.69 T 2048 670.224 T 2560 589.565 L 2560 0 Z" fill="url(#lg-0.9321748387810265)" opacity="0.4" style="opacity:0.4;animation-play-state:paused" ></path></g></svg>